<?xml version="1.0" encoding="UTF-8"?>
<svg width="8px" height="8px" viewBox="0 0 8 8" version="1.1" xmlns="http://www.w3.org/2000/svg" xmlns:xlink="http://www.w3.org/1999/xlink">
    <!-- Generator: Sketch 54.1 (76490) - https://sketchapp.com -->
    <title>Fill 1 Copy 7</title>
    <desc>Created with Sketch.</desc>
    <g id="Page-1" stroke="none" stroke-width="1" fill="none" fill-rule="evenodd">
        <g id="assign-task---details" transform="translate(-568.000000, -615.000000)" fill="#88A1CA">
            <g id="Group-90" transform="translate(526.000000, 297.000000)">
                <g id="Group-77" transform="translate(31.000000, 308.000000)">
                    <path d="M18.3423195,16.4204226 C18.5970042,16.6749635 18.5970042,17.0878501 18.3423195,17.3423911 C18.2149772,17.469734 18.0482298,17.533333 17.8813375,17.533333 C17.7144452,17.533333 17.5476978,17.469734 17.4203555,17.3423911 L14.7665941,14.6886169 L12.1129775,17.3423911 C11.9856352,17.469734 11.8188878,17.533333 11.6518506,17.533333 C11.4851032,17.533333 11.3183558,17.469734 11.1910135,17.3423911 C10.9363288,17.0878501 10.9363288,16.6749635 11.1910135,16.4204226 L13.84463,13.7666484 L11.1910135,11.1128742 C10.9363288,10.8583333 10.9363288,10.4454467 11.1910135,10.1909057 C11.4456981,9.93636476 11.8582929,9.93636476 12.1129775,10.1909057 L14.7665941,12.8446799 L17.4203555,10.1909057 C17.6750401,9.93636476 18.0876349,9.93636476 18.3423195,10.1909057 C18.5970042,10.4454467 18.5970042,10.8583333 18.3423195,11.1128742 L15.688703,13.7666484 L18.3423195,16.4204226 Z" id="Fill-1-Copy-7"></path>
                </g>
            </g>
        </g>
    </g>
</svg>