<?xml version="1.0" encoding="UTF-8"?>
<svg width="12px" height="13px" viewBox="0 0 12 13" version="1.1" xmlns="http://www.w3.org/2000/svg" xmlns:xlink="http://www.w3.org/1999/xlink">
    <!-- Generator: Sketch 54.1 (76490) - https://sketchapp.com -->
    <title>trash</title>
    <desc>Created with Sketch.</desc>
    <g id="Page-1" stroke="none" stroke-width="1" fill="none" fill-rule="evenodd">
        <g id="assign-task---details" transform="translate(-694.000000, -680.000000)" fill="#88A1CA" fill-rule="nonzero" stroke="#88A1CA" stroke-width="0.25">
            <g id="Group-90" transform="translate(526.000000, 297.000000)">
                <g id="Group-89" transform="translate(29.000000, 361.000000)">
                    <g id="trash" transform="translate(140.000000, 23.000000)">
                        <path d="M10,1.81818182 L6.81818182,1.81818182 L6.81818182,1.36363636 C6.81733638,0.610871264 6.20731055,0.000845434866 5.45454545,0 L4.54545455,0 C3.79268945,0.000845434866 3.18266362,0.610871264 3.18181818,1.36363636 L3.18181818,1.81818182 L0,1.81818182 L0,2.72727273 L0.502272727,2.72727273 L1.27653409,9.69607955 C1.35269254,10.3869774 1.93679259,10.9097389 2.631875,10.9090909 L7.368125,10.9090909 C8.06322686,10.9097357 8.64733432,10.3869431 8.72346591,9.69602273 L9.49772727,2.72727273 L10,2.72727273 L10,1.81818182 Z M4.09090909,1.36363636 C4.0911909,1.11271466 4.29453285,0.909372721 4.54545455,0.909090909 L5.45454545,0.909090909 C5.70546715,0.909372721 5.9088091,1.11271466 5.90909091,1.36363636 L5.90909091,1.81818182 L4.09090909,1.81818182 L4.09090909,1.36363636 Z M7.81988636,9.595625 C7.7945189,9.82593211 7.59982487,10.0002042 7.368125,10 L2.631875,10 C2.40019458,10.0002074 2.20550795,9.8259664 2.18011364,9.59568182 L1.41693182,2.72727273 L8.58306818,2.72727273 L7.81988636,9.595625 Z" id="Shape"></path>
                        <polygon id="Path" transform="translate(6.390615, 6.368307) rotate(-85.241114) translate(-6.390615, -6.368307) " points="4.26940331 5.9135575 8.51182756 5.9135575 8.51182756 6.8230565 4.26940331 6.8230565"></polygon>
                        <polygon id="Path" transform="translate(3.613026, 6.375295) rotate(-4.758886) translate(-3.613026, -6.375295) " points="3.15827615 4.25408334 4.06777515 4.25408334 4.06777515 8.49650758 3.15827615 8.49650758"></polygon>
                    </g>
                </g>
            </g>
        </g>
    </g>
</svg>