<?xml version="1.0" encoding="UTF-8"?>
<svg width="16px" height="18px" viewBox="0 0 16 18" version="1.1" xmlns="http://www.w3.org/2000/svg" xmlns:xlink="http://www.w3.org/1999/xlink">
    <!-- Generator: Sketch 54.1 (76490) - https://sketchapp.com -->
    <title>add projects icon</title>
    <desc>Created with Sketch.</desc>
    <g id="Page-1" stroke="none" stroke-width="1" fill="none" fill-rule="evenodd">
        <g id="task-tracker-copy1" transform="translate(-112.000000, -114.000000)" fill="#1CC283" fill-rule="nonzero">
            <g id="add-projects-icon" transform="translate(113.000000, 115.000000)">
                <g id="Group-11" transform="translate(8.000000, 9.500000)" stroke="#1CC283">
                    <path d="M3.4125,6.825 C1.5309,6.825 0,5.2941 0,3.4125 C0,1.5309 1.5309,0 3.4125,0 C5.2941,0 6.825,1.5309 6.825,3.4125 C6.825,5.2941 5.2941,6.825 3.4125,6.825 Z M3.4125,0.7875 C1.965075,0.7875 0.7875,1.965075 0.7875,3.4125 C0.7875,4.859925 1.965075,6.0375 3.4125,6.0375 C4.859925,6.0375 6.0375,4.859925 6.0375,3.4125 C6.0375,1.965075 4.859925,0.7875 3.4125,0.7875 Z" id="Shape" stroke-width="0.2"></path>
                    <path d="M3.01875,3.80625 L1.96875,3.80625 C1.7514,3.80625 1.575,3.62985 1.575,3.4125 C1.575,3.19515 1.7514,3.01875 1.96875,3.01875 L3.01875,3.01875 L3.01875,1.96875 C3.01875,1.7514 3.19515,1.575 3.4125,1.575 C3.62985,1.575 3.80625,1.7514 3.80625,1.96875 L3.80625,3.01875 L4.85625,3.01875 C5.0736,3.01875 5.25,3.19515 5.25,3.4125 C5.25,3.62985 5.0736,3.80625 4.85625,3.80625 L3.80625,3.80625 L3.80625,4.85625 C3.80625,5.0736 3.62985,5.25 3.4125,5.25 C3.19515,5.25 3.01875,5.0736 3.01875,4.85625 L3.01875,3.80625 Z" id="Combined-Shape" stroke-width="0.1"></path>
                </g>
                <path d="M6.8925,15.75 L2.0625,15.75 C0.92475,15.75 0,14.82525 0,13.6875 L0,2.0625 C0,0.92475 0.92475,0 2.0625,0 L10.6875,0 C11.82525,0 12.75,0.92475 12.75,2.0625 L12.75,7.63 C12.75,7.9405 12.498,8.1925 12.1875,8.1925 C11.877,8.1925 11.625,7.9405 11.625,7.63 L11.625,2.0625 C11.625,1.54575 11.20425,1.125 10.6875,1.125 L2.0625,1.125 C1.54575,1.125 1.125,1.54575 1.125,2.0625 L1.125,13.6875 C1.125,14.20425 1.54575,14.625 2.0625,14.625 L6.8925,14.625 C7.203,14.625 7.455,14.877 7.455,15.1875 C7.455,15.498 7.203,15.75 6.8925,15.75 Z" id="Path" stroke="#1CC283" stroke-width="0.15"></path>
                <path d="M9.9375,7.125 L2.8125,7.125 C2.502,7.125 2.25,6.873 2.25,6.5625 C2.25,6.252 2.502,6 2.8125,6 L9.9375,6 C10.248,6 10.5,6.252 10.5,6.5625 C10.5,6.873 10.248,7.125 9.9375,7.125 Z" id="Path"></path>
                <path d="M6.9375,10.125 L2.8125,10.125 C2.502,10.125 2.25,9.873 2.25,9.5625 C2.25,9.252 2.502,9 2.8125,9 L6.9375,9 C7.248,9 7.5,9.252 7.5,9.5625 C7.5,9.873 7.248,10.125 6.9375,10.125 Z" id="Path"></path>
                <path d="M6.1875,4.125 L2.8125,4.125 C2.502,4.125 2.25,3.873 2.25,3.5625 C2.25,3.252 2.502,3 2.8125,3 L6.1875,3 C6.498,3 6.75,3.252 6.75,3.5625 C6.75,3.873 6.498,4.125 6.1875,4.125 Z" id="Path"></path>
            </g>
        </g>
    </g>
</svg>