<?xml version="1.0" encoding="UTF-8"?>
<svg width="19px" height="18px" viewBox="0 0 19 18" version="1.1" xmlns="http://www.w3.org/2000/svg" xmlns:xlink="http://www.w3.org/1999/xlink">
    <!-- Generator: Sketch 54.1 (76490) - https://sketchapp.com -->
    <title>add member icon</title>
    <desc>Created with Sketch.</desc>
    <g id="Page-1" stroke="none" stroke-width="1" fill="none" fill-rule="evenodd">
        <g id="task-tracker-copy1" transform="translate(-184.000000, -115.000000)" fill="#1CC283" fill-rule="nonzero" stroke="#1CC283">
            <g id="add-member-icon" transform="translate(185.000000, 115.000000)">
                <path d="M12.9650872,9.29907386 C11.8606018,9.29535643 10.804068,9.73095285 10.0479169,10.5019935 C8.96032872,9.67103644 7.60912094,9.22067963 6.21783928,9.22570909 L6.20687891,9.22570909 C4.53473787,9.22909853 2.98304667,9.85155093 1.83300729,10.9843859 C0.66458644,12.1278265 0.0256883539,13.6906817 0.0292276465,15.38649 C0.0299126695,15.4793167 0.0679314514,15.5680979 0.135177865,15.6346837 C0.203794325,15.7005043 0.297185804,15.737132 0.394344902,15.736148 L9.9785012,15.7186541 C10.0004219,15.7431455 10.0222285,15.7641381 10.0442634,15.7886295 C11.3025364,17.0639298 13.3026893,17.3621996 14.9064422,16.5138582 C16.5101952,15.6654073 17.3114437,13.8854099 16.8541909,12.1863215 C16.396938,10.4872331 14.7972953,9.29962053 12.9650872,9.29907386 Z M0.770422495,15.0333333 C0.847145067,13.6591928 1.40212783,12.4040104 2.35499479,11.4704957 C3.36643121,10.4740033 4.73556378,9.92502502 6.20687891,9.92502502 L6.21783928,9.92502502 C7.44585712,9.92043291 8.63871044,10.3175429 9.59877012,11.0508625 C8.78987217,12.2473312 8.73655455,13.7737774 9.46005299,15.0194476 L0.770422495,15.0333333 Z M12.9650872,16.2921238 C11.150233,16.2921238 9.67914615,14.8832143 9.67914615,13.1452021 C9.67914615,11.4074086 11.150233,9.99838979 12.9650872,9.99838979 C14.7799413,9.99838979 16.2510282,11.4074086 16.2510282,13.1452021 C16.2510282,14.8832143 14.7799413,16.2921238 12.9650872,16.2921238 L12.9650872,16.2921238 Z" id="Shape" stroke-width="0.6"></path>
                <path d="M6.21053237,8.09169068 C8.34186716,8.09169068 10.0697234,6.43699284 10.0697234,4.3959 C10.0697234,2.35469783 8.34186716,0.7 6.21053237,0.7 C4.07919758,0.7 2.35134134,2.35469783 2.35134134,4.3959 C2.35339639,6.43611815 4.07999678,8.08972261 6.21053237,8.09169068 Z M6.21053237,1.39931592 C7.93873116,1.39931592 9.33948895,2.7409835 9.33948895,4.3959 C9.33948895,6.05070717 7.93873116,7.39237472 6.21053237,7.39237472 C4.48244777,7.39237472 3.08157582,6.05070717 3.08157582,4.3959 C3.08363087,2.74174886 4.48324697,1.40139332 6.21053237,1.39931592 Z" id="Shape" stroke-width="0.6"></path>
                <path d="M14.4438234,12.7955442 L13.3302044,12.7955442 L13.3302044,11.7291858 C13.3302044,11.5359883 13.1667122,11.3795278 12.9650872,11.3795278 C12.7634621,11.3795278 12.5999699,11.5359883 12.5999699,11.7291858 L12.5999699,12.7955442 L11.4863509,12.7955442 C11.2847258,12.7955442 11.1212337,12.952114 11.1212337,13.1452021 C11.1212337,13.3383996 11.2847258,13.4948601 11.4863509,13.4948601 L12.5999699,13.4948601 L12.5999699,14.5613278 C12.5999699,14.754416 12.7634621,14.9109858 12.9650872,14.9109858 C13.1667122,14.9109858 13.3302044,14.754416 13.3302044,14.5613278 L13.3302044,13.4948601 L14.4438234,13.4948601 C14.6454485,13.4948601 14.8088265,13.3383996 14.8088265,13.1452021 C14.8088265,12.952114 14.6454485,12.7955442 14.4438234,12.7955442 L14.4438234,12.7955442 Z" id="Path" stroke-width="0.2"></path>
            </g>
        </g>
    </g>
</svg>