<?xml version="1.0" encoding="UTF-8"?>
<svg width="14px" height="18px" viewBox="0 0 14 18" version="1.1" xmlns="http://www.w3.org/2000/svg" xmlns:xlink="http://www.w3.org/1999/xlink">
    <!-- Generator: Sketch 54.1 (76490) - https://sketchapp.com -->
    <title>attachment (1) copy 2</title>
    <desc>Created with Sketch.</desc>
    <g id="Page-1" stroke="none" stroke-width="1" fill="none" fill-rule="evenodd">
        <g id="assign-task---members-dropdoiwn" transform="translate(-893.000000, -470.000000)" fill="#88A1CA" fill-rule="nonzero">
            <g id="Group-88" transform="translate(526.000000, 348.000000)">
                <g id="attachment-(1)-copy-2" transform="translate(375.000000, 131.526316) rotate(33.000000) translate(-375.000000, -131.526316) translate(369.000000, 123.000000)">
                    <path d="M10.2781331,6.8040658 L10.2781331,11.1388737 C10.2781331,13.4674917 8.36320345,15.3549205 6,15.3549205 C3.63570694,15.3549205 1.72186687,13.4677703 1.72186687,11.1334225 L1.72186687,4.24708282 C1.72186687,2.84377643 2.86551383,1.70841451 4.28737464,1.69779063 C5.70511915,1.70841451 6.85296313,2.84620361 6.85296313,4.24342216 L6.85296313,11.0818152 C6.85296313,11.5491065 6.46675679,11.9294969 5.99277629,11.9294969 C5.51710083,11.9294969 5.13258944,11.5510164 5.13258944,11.0836455 L5.13258944,3.42005199 L3.41072257,3.42005199 L3.41072257,11.0836057 C3.41072257,12.4892597 4.56675881,13.6271682 5.99277629,13.6271682 C7.41734095,13.6271682 8.57483,12.4871111 8.57483,11.0817754 L8.57483,4.24342216 C8.57483,1.9150429 6.66680119,0.0214466979 4.30751226,0 L4.2673581,0.00019894896 C1.90334753,0.0213671183 0,1.91313299 0,4.24708282 L0,11.1334623 C0,14.4054167 2.68475958,17.0526316 6,17.0526316 C9.3140701,17.0526316 12,14.4052178 12,11.1388737 L12,6.8040658 L10.2781331,6.8040658 Z" id="Path"></path>
                </g>
            </g>
        </g>
    </g>
</svg>