<?xml version="1.0" encoding="UTF-8"?>
<svg width="22px" height="22px" viewBox="0 0 22 22" version="1.1" xmlns="http://www.w3.org/2000/svg" xmlns:xlink="http://www.w3.org/1999/xlink">
    <!-- Generator: Sketch 54.1 (76490) - https://sketchapp.com -->
    <title>chrome (1)</title>
    <desc>Created with Sketch.</desc>
    <g id="Page-1" stroke="none" stroke-width="1" fill="none" fill-rule="evenodd">
        <g id="team-member--expand-view-(browser-extension-view)" transform="translate(-26.000000, -712.000000)" fill="#FFFFFF" fill-rule="nonzero">
            <g id="Group-25" transform="translate(16.000000, 703.000000)">
                <g id="chrome-(1)" transform="translate(10.000000, 9.000000)">
                    <path d="M6.88895738,11.0007934 C6.88895738,13.2675869 8.73313443,15.1116197 11,15.1116197 C13.2667213,15.1116197 15.1107541,13.2675148 15.1107541,11.0007934 C15.1107541,8.734 13.2667213,6.88982295 11,6.88982295 C8.73313443,6.88982295 6.88895738,8.734 6.88895738,11.0007934 Z" id="XMLID_17_"></path>
                    <path d="M20.4659869,5.57436721 C20.4980131,5.51803279 20.4974361,5.44885902 20.4643279,5.39310164 C19.5067869,3.78039344 18.1440852,2.42952131 16.5235869,1.48655082 C14.8533902,0.514583607 12.9432852,0.00086557377 11,0.00086557377 C7.63688525,0.00086557377 4.50264262,1.5101377 2.40088525,4.14169836 C2.35450492,4.1996918 2.3484459,4.28011803 2.38559344,4.34438689 L5.48218361,9.70769836 C5.51464262,9.76396066 5.57451148,9.7978623 5.63827541,9.7978623 C5.6463541,9.7978623 5.65457705,9.79728525 5.66272787,9.79620328 C5.7352918,9.78632131 5.79465574,9.73352131 5.81297705,9.66261639 C6.42356721,7.29678689 8.55655738,5.64447869 11,5.64447869 C11.1516197,5.64447869 11.3082164,5.65140328 11.4656066,5.66481967 C11.4707279,5.66532459 11.4759213,5.66554098 11.4810426,5.66554098 L20.3092459,5.66554098 C20.3740918,5.66554098 20.4339607,5.63077377 20.4659869,5.57436721 Z" id="XMLID_18_"></path>
                    <path d="M12.6254754,16.2248918 C12.580682,16.1669705 12.5055213,16.1420852 12.4346164,16.1617049 C11.9688656,16.2913967 11.4862361,16.3571082 11,16.3571082 C8.9340918,16.3571082 7.0300459,15.1454492 6.1491082,13.2703279 C6.14694426,13.2657115 6.14456393,13.2612393 6.14203934,13.2567672 L1.72472787,5.60596066 C1.69255738,5.55005902 1.63297705,5.51579672 1.56856393,5.51579672 C1.56827541,5.51579672 1.56791475,5.51579672 1.56762623,5.51579672 C1.50285246,5.51615738 1.4432,5.55114098 1.4114623,5.60754754 C0.488111475,7.24600656 0,9.11095738 0,11.0007934 C0,13.6519738 0.956459016,16.2128459 2.69316066,18.2116721 C4.41262295,20.1905902 6.77982295,21.492918 9.35887213,21.8788197 C9.36781639,21.8801902 9.37676066,21.8807672 9.38563279,21.8807672 C9.44932459,21.8807672 9.50919344,21.8468656 9.54172459,21.7906033 L12.6391082,16.4256328 C12.6757508,16.3621574 12.670341,16.2828131 12.6254754,16.2248918 Z" id="XMLID_19_"></path>
                    <path d="M21.074918,6.86876066 L14.8735148,6.86876066 C14.8002295,6.86876066 14.7342295,6.91312131 14.7066033,6.98092459 C14.6789049,7.04872787 14.6949902,7.12662951 14.7472852,7.17784262 C15.7848918,8.19503607 16.3563148,9.55268852 16.3563148,11.0007934 C16.3563148,12.0970426 16.0255213,13.1520328 15.3996393,14.0517967 C15.3967541,14.0559803 15.3940852,14.0602361 15.3915607,14.0646361 L10.9666033,21.7287148 C10.9342164,21.7848328 10.9344328,21.8540066 10.9671082,21.9099803 C10.9994951,21.9653049 11.0587869,21.9992066 11.1227672,21.9992066 C11.1234164,21.9992066 11.1241377,21.9992066 11.1247869,21.9992066 C14.0367213,21.9667475 16.7692656,20.8082492 18.8189443,18.7372918 C20.870282,16.6646033 22,13.9170557 22,11.0007934 C22,9.61464918 21.7452328,8.26298361 21.2427672,6.98323279 C21.2156459,6.91413115 21.1490689,6.86876066 21.074918,6.86876066 Z" id="XMLID_20_"></path>
                </g>
            </g>
        </g>
    </g>
</svg>