<?xml version="1.0" encoding="UTF-8"?>
<svg width="18px" height="18px" viewBox="0 0 18 18" version="1.1" xmlns="http://www.w3.org/2000/svg" xmlns:xlink="http://www.w3.org/1999/xlink">
    <!-- Generator: Sketch 64 (93537) - https://sketch.com -->
    <title>Shape</title>
    <desc>Created with Sketch.</desc>
    <g id="Page-1" stroke="none" stroke-width="1" fill="none" fill-rule="evenodd">
        <g id="Task-Tracker-1" transform="translate(-1323.000000, -299.000000)" fill="#2A206A" fill-rule="nonzero" stroke="#2A206A" stroke-width="0.3">
            <g id="Group-34" transform="translate(1296.000000, 300.000000)">
                <path d="M38.6726513,8.63976536 L33.5904364,8.63976536 C33.3098981,8.63976536 33.0822149,8.86744859 33.0822149,9.14798686 C33.0822149,9.42852512 33.3098981,9.65620835 33.5904364,9.65620835 L38.6726513,9.65620835 C38.9531896,9.65620835 39.1808728,9.42852512 39.1808728,9.14798686 C39.1808728,8.86744859 38.9531896,8.63976536 38.6726513,8.63976536 Z M39.6890943,5.59043641 L32.5739934,5.59043641 C32.2934552,5.59043641 32.0657719,5.81811964 32.0657719,6.0986579 C32.0657719,6.37919617 32.2934552,6.6068794 32.5739934,6.6068794 L39.6890943,6.6068794 C39.9696326,6.6068794 40.1973158,6.37919617 40.1973158,6.0986579 C40.1973158,5.81811964 39.9696326,5.59043641 39.6890943,5.59043641 Z M36.1315439,0 C31.6409121,0 28,3.18551902 28,7.11510089 C28,9.36094827 29.1917761,11.3602717 31.049329,12.6643747 L31.049329,15.3748401 C31.049329,15.6509825 31.2731866,15.8748401 31.549329,15.8748401 C31.6407966,15.8748401 31.7305118,15.8497497 31.8087092,15.8022999 L34.6114501,14.1016118 L34.6114501,14.1016118 C35.1044448,14.1829538 35.61163,14.2302018 36.1315439,14.2302018 C40.6227072,14.2302018 44.2630877,11.0446828 44.2630877,7.11510089 C44.2630877,3.18551902 40.6227072,0 36.1315439,0 Z M36.1315439,13.2137588 C35.5379412,13.2137588 34.9646673,13.1446407 34.4137419,13.0272382 L32.0210219,14.4654851 L32.0530431,12.1083737 C30.2189017,11.0050348 29.016443,9.1815494 29.016443,7.11510089 C29.016443,3.74712703 32.201962,1.01644298 36.1315439,1.01644298 C40.0611257,1.01644298 43.2466448,3.74712703 43.2466448,7.11510089 C43.2466448,10.4830748 40.0611257,13.2137588 36.1315439,13.2137588 Z" id="Shape"></path>
            </g>
        </g>
    </g>
</svg>