<?xml version="1.0" encoding="UTF-8"?>
<svg width="24px" height="24px" viewBox="0 0 24 24" version="1.1" xmlns="http://www.w3.org/2000/svg"
>
    <!-- Generator: Sketch 54.1 (76490) - https://sketchapp.com -->
    <title>Group 5</title>
    <desc>Created with Sketch.</desc>
    <g id="Page-1" stroke="none" stroke-width="1" fill="none" fill-rule="evenodd">
        <g id="Group-5" fill="#88A4CF">
            <path d="M21,22 L3,22 C2.4485,22 2,21.5515 2,21 L2,18.4140625 L7,13.4140625 L12.793,19.2065625 C12.9885,19.4025625 13.243875,19.5 13.5,19.5 C13.756125,19.5 14.0115,19.4025625 14.207,19.207 C14.5974375,18.816375 14.5974375,18.1835625 14.207,17.7929375 L11.6640625,15.25 L18,8.9145625 L22,12.9145625 L22,21 C22,21.5515 21.5515,22 21,22 M3,2 L21,2 C21.5515,2 22,2.4485 22,3 L22,10.0859375 L18.707,6.793 C18.316375,6.4025625 17.6835625,6.4025625 17.2929375,6.793 L10.25,13.8359375 L7.7070625,11.293 C7.3164375,10.9025625 6.683625,10.9025625 6.293,11.293 L2,15.5859375 L2,3 C2,2.4485 2.4485,2 3,2 M21,0 L3,0 C1.3454375,0 0,1.3454375 0,3 L0,21 C0,22.6545625 1.3454375,24 3,24 L21,24 C22.6545625,24 24,22.6545625 24,21 L24,3 C24,1.3454375 22.6545625,0 21,0"
                  id="Fill-1"></path>
            <path d="M8,6 C8,7.1045 7.1045,8 6,8 C4.8955,8 4,7.1045 4,6 C4,4.8955 4.8955,4 6,4 C7.1045,4 8,4.8955 8,6"
                  id="Fill-3"></path>
        </g>
    </g>
</svg>
