<svg xmlns="http://www.w3.org/2000/svg" viewBox="0 0 238.7 70.52"><defs><style>.cls-1{fill:none;}.cls-2{fill:#fff;}.cls-3{fill:#2c1e6e;}.cls-4{fill:#1cc283;}.cls-5{isolation:isolate;}</style></defs><title>logo final1</title><g id="Layer_2" data-name="Layer 2"><g id="Layer_1-2" data-name="Layer 1"><line class="cls-1" x1="37" y1="0.2" x2="37" y2="70.2"/><line class="cls-1" y1="35" x2="70" y2="35"/><polygon class="cls-2" points="20.4 24.1 18.7 24.2 19.5 25.7 19.5 25.7 36.3 35.9 37.3 34.3 20.4 24.1"/><circle class="cls-3" cx="37" cy="35" r="2.5"/><path class="cls-4" d="M37,7A28,28,0,0,1,62.7,23.8h7.5a35.06,35.06,0,0,0-66.4,0h7.5A28,28,0,0,1,37,7Z"/><path class="cls-4" d="M71.7,30.8H54.6v7H64.8A28,28,0,0,1,9,35a29.66,29.66,0,0,1,.3-4.2H2.2A29.66,29.66,0,0,0,1.9,35a35,35,0,0,0,70,0A19.72,19.72,0,0,0,71.7,30.8Z"/><circle class="cls-4" cx="37" cy="35" r="1.5"/><path class="cls-2" d="M47.1,26.8l-1.7.2h0l-7,5.9a2.4,2.4,0,0,1,1.1,1.5l7.1-6h0Z"/><g class="cls-5"><path class="cls-2" d="M83.59,70H77.65V30.76h5.94Z"/><path class="cls-2" d="M108,39.61v2.68l-5.72.28V40.22c0-3.13-1.17-4.53-3.47-4.53s-3.47,1.4-3.47,4V61.05c0,2.58,1.12,4,3.41,4s3.42-1.4,3.42-4.54V53.77H98.76V48.29H108V61.11c0,5.94-3.42,9.41-9.36,9.41s-9.24-3.47-9.24-9.41V39.61c0-5.94,3.36-9.41,9.24-9.41S108,33.67,108,39.61Z"/><path class="cls-2" d="M129.45,39v1l-5.71.56V39.1c0-2.24-1.07-3.41-3-3.41s-3,1.17-3,3.41v.51c0,2.29,1,4.25,5,7.61,5.43,4.59,7.45,7.84,7.45,12.55v2c0,5.6-3.3,8.79-9.18,8.79s-9.19-3.19-9.19-8.79V59.09l5.71-.56v2.8q0,3.7,3.36,3.7t3.36-3.7V60.05c0-2.47-1.17-4.43-5.15-7.79-5.43-4.59-7.28-7.84-7.28-12.43V39c0-5.6,3.19-8.79,8.85-8.79S129.45,33.39,129.45,39Z"/><path class="cls-2" d="M149.66,36.36h-6.32V70H137.4V36.36h-6.33v-5.6h18.59Z"/><path class="cls-2" d="M159.41,70h-5.94V30.76h5.94Z"/><path class="cls-2" d="M190.93,70H185V42.74h-.11L180,64.36h-3.53L171.5,42.74h-.11V70h-5.6V30.76h7.78l4.65,21.05h.11l4.6-21h8Z"/><path class="cls-2" d="M214,36.25H203.25V47.33h8.68v5.49h-8.68V64.47H214V70H197.32V30.76H214Z"/><path class="cls-2" d="M232.43,70l-4.7-16.58H225V70h-5.93V30.76h8.56c6.39,0,9.86,3.47,9.86,9.91v2.8c0,4.14-1.46,7.06-4.2,8.62L238.7,70ZM225,36.25V47.89h2.41c2.86,0,4.14-1.51,4.14-4.81v-2c0-3.3-1.28-4.81-4.14-4.81Z"/></g></g></g></svg>