<?xml version="1.0" encoding="UTF-8"?>
<svg width="18px" height="12px" viewBox="0 0 18 12" version="1.1" xmlns="http://www.w3.org/2000/svg" xmlns:xlink="http://www.w3.org/1999/xlink">
    <!-- Generator: Sketch 54.1 (76490) - https://sketchapp.com -->
    <title>videocam-24px copy</title>
    <desc>Created with Sketch.</desc>
    <g id="Page-1" stroke="none" stroke-width="1" fill="none" fill-rule="evenodd">
        <g id="Assign-task-stop-record--button--screen-" transform="translate(-890.000000, -413.000000)" fill="#88A1CA" fill-rule="nonzero">
            <g id="Group-102" transform="translate(526.000000, 297.000000)">
                <g id="Group-81-Copy" transform="translate(363.000000, 82.000000)">
                    <g id="videocam-24px-copy" transform="translate(1.000000, 34.000000)">
                        <path d="M12,2 L12,10 L2,10 L2,2 L12,2 L12,2 Z M13,0 L1,0 C0.45,0 0,0.45 0,1 L0,11 C0,11.55 0.45,12 1,12 L13,12 C13.55,12 14,11.55 14,11 L14,7.5 L18,11.5 L18,0.5 L14,4.5 L14,1 C14,0.45 13.55,0 13,0 Z" id="Shape"></path>
                    </g>
                </g>
            </g>
        </g>
    </g>
</svg>